<?xml version="1.0" standalone="no"?>
<!DOCTYPE svg PUBLIC "-//W3C//DTD SVG 20010904//EN"
 "http://www.w3.org/TR/2001/REC-SVG-20010904/DTD/svg10.dtd">
<svg version="1.0" xmlns="http://www.w3.org/2000/svg"
 width="385.000000pt" height="174.000000pt" viewBox="0 0 385.000000 174.000000"
 preserveAspectRatio="xMidYMid meet">

<g transform="translate(0.000000,174.000000) scale(0.100000,-0.100000)"
fill="#000000" stroke="none">
<path d="M0 870 l0 -870 1925 0 1925 0 0 870 0 870 -1925 0 -1925 0 0 -870z
m2006 459 c82 -11 223 -49 276 -74 18 -8 24 -13 13 -9 -219 63 -392 83 -574
65 -134 -13 -347 -50 -471 -81 -94 -23 -234 -40 -325 -39 -61 1 -43 5 140 34
116 18 314 52 440 73 246 43 363 50 501 31z m-322 -60 c-34 -4 -103 -16 -155
-25 l-94 -18 115 -7 c178 -11 311 -28 480 -61 185 -36 375 -41 500 -14 93 20
103 20 169 0 102 -30 173 -132 156 -223 -8 -40 -39 -106 -56 -116 -6 -4 -1 12
11 36 18 35 21 55 18 117 -3 66 -6 77 -31 98 -19 16 -40 24 -65 24 -70 0 -112
-52 -112 -140 0 -54 10 -81 43 -117 l20 -23 -208 0 c-115 0 -282 -5 -370 -11
-88 -6 -178 -9 -200 -7 l-40 3 74 53 74 52 151 -1 c83 -1 176 -4 206 -9 36 -5
-13 -7 -140 -6 -195 1 -195 1 -241 -26 -25 -15 -52 -34 -59 -43 -12 -14 -11
-16 11 -11 48 11 466 25 582 19 l119 -6 -21 39 c-26 48 -28 132 -5 180 24 51
59 74 113 74 44 1 45 1 21 14 -47 25 -105 28 -192 10 -130 -28 -340 -24 -498
9 -197 41 -349 58 -575 65 l-210 7 104 24 c123 28 259 49 321 49 40 -1 39 -1
-16 -9z m666 -39 c8 -5 11 -10 5 -10 -5 0 -17 5 -25 10 -8 5 -10 10 -5 10 6 0
17 -5 25 -10z m-1032 -79 c62 -5 115 -11 118 -14 14 -14 -10 -47 -44 -59 -40
-14 -123 -14 -377 1 l-160 9 250 -1 c239 0 305 5 305 23 0 12 -54 18 -315 31
-126 6 -232 13 -234 15 -8 7 342 3 457 -5z m475 -45 c62 -25 115 -118 104
-179 -3 -20 -4 -19 -10 6 -4 15 -9 38 -12 51 -8 39 -52 83 -101 102 -61 23
-110 8 -158 -47 -57 -67 -68 -156 -30 -231 l15 -28 -58 0 c-71 0 -111 18 -234
101 -132 89 -164 98 -336 99 -79 0 -143 -3 -143 -7 1 -14 43 -58 93 -97 40
-33 61 -66 41 -66 -3 0 -39 33 -80 73 -47 47 -74 81 -74 95 0 22 3 22 153 22
100 0 169 -5 198 -13 24 -8 96 -47 159 -88 133 -86 151 -95 213 -104 l47 -7
-18 33 c-11 22 -17 56 -16 94 1 148 124 243 247 191z"/>
</g>
</svg>
